# xmcd
#
# Track frame offsets:
#	182
#	14402
#	25770
#	36225
#	50185
#	60135
#	71422
#	93340
#	98862
#	110605
#
# Disc length: 1572 seconds
#
# Revision: 0
# Processed by: cddbd v1.5.2PL0 Copyright (c) Steve Scherf et al.
# Submitted via: EasyCDDAExtractor 10.0.6.1
#
DISCID=7d06220a
DTITLE=The Marksmen - Moving Ahead
DYEAR=1991
DGENRE=Bluegrass
TTITLE0=Grandpa Was A Farmer
TTITLE1=Tear Stained Wood
TTITLE2=Wagon Tracks
TTITLE3=Rock Of My Soul
TTITLE4=You'd Better Run
TTITLE5=There's Going To Be An Invasion
TTITLE6=Use Me Oh Lord
TTITLE7=Everybody Will Be Happy Over There
TTITLE8=Sound The Battle Cry
TTITLE9=I Want To Go There
EXTD=
EXTT0=
EXTT1=
EXTT2=
EXTT3=
EXTT4=
EXTT5=
EXTT6=
EXTT7=
EXTT8=
EXTT9=
PLAYORDER=
